PathFileType	4	(X/Y/Z)	C:/Users/opensim2020/Desktop/walking_exp_matlab/subject06_walking23_straight_02.trc																																																																																																																																					
DataRate	CameraRate	NumFrames	NumMarkers	Units	OrigDataRate	OrigDataStartFrame	OrigNumFrames																																																																																																																																	
100	100	8	45	mm	100	1291	114																																																																																																																																	
Frame#	Time	LFHD			RFHD			LBHD			RBHD			C7			T10			CLAV			STRN			RBAK			LSHO			LUPA			LELB			LFRM			LWRA			LWRB			LFIN			RSHO			RUPA			RELB			RFRM			RWRA			RWRB			RFIN			LASI			RASI			LPSI			RPSI			LTHI			LKNE			LTIB			LANK			LHEE			LTOE			RTHI			RKNE			RTIB			RANK			RHEE			RTOE			*39			*40			*41			*42			*43			*44		
		X1	Y1	Z1	X2	Y2	Z2	X3	Y3	Z3	X4	Y4	Z4	X5	Y5	Z5	X6	Y6	Z6	X7	Y7	Z7	X8	Y8	Z8	X9	Y9	Z9	X10	Y10	Z10	X11	Y11	Z11	X12	Y12	Z12	X13	Y13	Z13	X14	Y14	Z14	X15	Y15	Z15	X16	Y16	Z16	X17	Y17	Z17	X18	Y18	Z18	X19	Y19	Z19	X20	Y20	Z20	X21	Y21	Z21	X22	Y22	Z22	X23	Y23	Z23	X24	Y24	Z24	X25	Y25	Z25	X26	Y26	Z26	X27	Y27	Z27	X28	Y28	Z28	X29	Y29	Z29	X30	Y30	Z30	X31	Y31	Z31	X32	Y32	Z32	X33	Y33	Z33	X34	Y34	Z34	X35	Y35	Z35	X36	Y36	Z36	X37	Y37	Z37	X38	Y38	Z38	X39	Y39	Z39	X40	Y40	Z40	X41	Y41	Z41	X42	Y42	Z42	X43	Y43	Z43	X44	Y44	Z44	X45	Y45	Z45
																																																																																																																																								
15	0.14	-618.56952	1639.35083	896.8996	-595.2984	1640.60388	1027.13513	-750.4162	1590.39246	925.78223	-725.64844	1596.19861	1052.61304	-743.78424	1434.88672	982.37445	-782.68024	1107.08203	991.52246	-633.12708	1358.74963	980.45032	-591.85736	1187.68469	979.06348	-815.72461	1267.6106	1068.37354	-693.68744	1386.52063	820.09161	-731.44617	1189.07349	747.67413	-759.68414	1080.40613	735.83777	-768.46887	932.54071	705.24493	-731.98785	804.91949	737.10706	-793.43774	816.22626	702.841	-771.70465	727.40796	695.67108	-676.73364	1394.21765	1140.9436	-697.67773	1202.39258	1244.11169	-671.638	1086.28137	1266.78137	-609.03558	986.88696	1282.9353	-495.47134	892.53552	1239.67993	-538.24622	869.39441	1286.37964	-469.80319	820.70837	1282.04907	-602.78113	951.26752	889.40509	-612.43469	955.20123	1107.01099	-760.50226	970.86639	906.36023	-761.46844	979.96503	1073.68213	-593.16608	639.36426	821.52838	-524.9765	491.4798	850.39667	-524.79608	237.47452	864.11053	-501.92004	67.18999	906.31122	-535.15143	48.97212	955.33612	-357.99109	55.95151	901.64307	-709.229	620.04486	1149.57776	-731.33765	495.21762	1127.36462	-846.49487	249.65526	1119.20764	-909.8775	75.48257	1068.34839	-954.68323	56.17339	1024.11389	-761.91412	30.69505	1068.1521	-705.50586	1686.58801	968.97815	NaN	NaN	NaN	NaN	NaN	NaN	NaN	NaN	NaN	NaN	NaN	NaN	NaN	NaN	NaN
16	0.15	-604.41846	1636.4856	896.7359	-581.04694	1637.66565	1026.94409	-736.24335	1587.56543	925.63245	-711.25745	1593.27307	1052.26453	-729.69958	1431.97815	982.14728	-768.797	1104.10352	991.16467	-618.94342	1355.81616	980.26569	-577.78564	1184.76196	979.11725	-801.77954	1264.67053	1068.13208	-679.36804	1383.51501	819.81445	-719.54565	1186.69226	747.39417	-749.83594	1078.58545	735.64801	-761.58301	931.01935	704.68121	-726.09296	802.56152	734.9361	-788.92957	815.33508	702.02991	-769.47791	725.95892	694.84808	-662.80908	1391.41809	1140.69604	-682.54498	1199.88501	1244.44568	-655.38489	1084.17761	1267.50891	-590.73334	986.10474	1283.28003	-475.56134	894.36359	1239.39319	-517.43506	870.3064	1286.28564	-448.01257	823.15509	1281.59326	-588.3808	948.5965	889.57349	-598.59723	952.37305	1107.05872	-745.98022	968.0553	905.76184	-747.8443	977.10773	1073.27283	-580.3905	635.44446	821.46405	-510.7189	488.39517	851.05347	-496.11475	235.44164	863.4632	-462.76663	66.69638	904.52722	-496.09174	46.95243	953.23694	-318.36163	61.30158	901.96484	-698.33063	617.91064	1149.16626	-722.58148	493.4006	1127.21277	-842.41431	249.79037	1118.54529	-909.19946	76.84281	1067.60376	-954.1568	58.17835	1023.25732	-761.86536	30.6573	1068.09851	-691.28711	1683.73657	968.84174	NaN	NaN	NaN	NaN	NaN	NaN	NaN	NaN	NaN	NaN	NaN	NaN	NaN	NaN	NaN
17	0.16	-590.08069	1633.64294	896.46674	-566.73578	1634.77295	1026.67957	-722.05756	1584.79138	925.2558	-697.19312	1590.45129	1052.17834	-715.41864	1429.10352	981.74896	-754.77753	1101.10852	990.72461	-604.55225	1352.83923	979.94452	-563.56897	1181.81006	979.09906	-787.75983	1261.72766	1067.83252	-664.99115	1380.41992	819.42572	-707.5528	1184.28442	747.00385	-739.75623	1076.7002	735.36273	-754.00812	929.35834	704.68738	-721.26837	800.30017	734.15149	-783.83984	814.35107	701.43292	-766.40686	724.54205	694.06726	-648.68573	1388.47021	1140.3551	-667.33575	1197.15186	1244.57739	-639.06464	1081.88098	1268.07751	-572.70319	985.15723	1283.57373	-455.90564	895.89294	1239.04419	-497.05521	870.90845	1286.09229	-426.6402	825.23712	1281.00391	-573.61938	946.1142	889.81622	-584.88403	949.59943	1107.18408	-730.64685	965.04047	905.19543	-734.00226	974.1709	1072.65942	-567.41119	631.5744	821.10425	-495.87033	485.72894	851.71832	-468.73611	234.2621	862.68481	-426.19919	67.06722	902.91797	-458.65692	45.69087	951.44843	-281.06171	67.26424	901.77161	-687.19958	615.88544	1148.80457	-713.20605	491.60217	1126.90039	-838.08051	250.16895	1117.84509	-908.13672	78.49779	1067.11597	-953.50549	60.76986	1022.71497	-761.80933	30.53074	1067.96631	-677.02319	1680.88782	968.64398	NaN	NaN	NaN	NaN	NaN	NaN	NaN	NaN	NaN	NaN	NaN	NaN	NaN	NaN	NaN
18	0.17	-575.75696	1630.88879	896.10199	-552.37177	1631.93933	1026.29688	-707.60785	1581.92346	924.9483	-682.8667	1587.64307	1051.82751	-701.02277	1426.3512	981.26642	-740.5401	1098.15417	990.14294	-590.26776	1349.92212	979.61188	-549.22174	1178.91772	978.9574	-773.68695	1258.86633	1067.36877	-650.68237	1377.34302	818.88165	-695.36536	1181.87988	746.55023	-729.33966	1074.85742	735.00439	-746.59027	927.96533	703.67706	-715.23419	798.17999	733.10815	-778.1131	813.41388	700.78131	-762.66058	723.25018	693.50024	-634.48126	1385.4873	1139.94531	-652.12103	1194.36328	1244.59485	-622.83582	1079.57141	1268.49438	-554.91595	984.07813	1283.79211	-436.71332	897.15759	1238.62488	-477.08444	871.29718	1285.81982	-405.87976	827.08575	1280.39917	-558.59253	943.70569	889.995	-570.76062	946.94226	1107.12903	-715.78314	962.17786	904.24213	-720.07996	971.24963	1071.87036	-553.89331	627.83691	820.05103	-480.3942	483.32727	851.89539	-442.67465	233.54886	861.79358	-391.90695	68.21974	901.45093	-423.33493	44.88535	950.05109	-246.57854	74.52669	901.05634	-675.66107	613.90253	1148.51721	-703.25482	489.80902	1126.61584	-833.26654	250.80559	1117.25635	-907.07385	80.58532	1066.78882	-952.70404	63.83479	1022.31335	-761.83765	30.48133	1067.90332	-662.64368	1678.0542	968.24945	NaN	NaN	NaN	NaN	NaN	NaN	NaN	NaN	NaN	NaN	NaN	NaN	NaN	NaN	NaN
19	0.18	-561.29083	1628.18079	895.60596	-537.94446	1629.25684	1025.82764	-693.24042	1579.24292	924.33051	-668.40979	1584.88977	1051.29626	-686.51685	1423.66162	980.64008	-726.08423	1095.30481	989.50378	-575.60718	1347.17468	979.08759	-534.68152	1176.19409	978.69427	-759.55725	1256.15527	1066.83081	-636.30817	1374.40991	818.20526	-683.00372	1179.55078	745.97888	-718.4931	1073.03918	734.58661	-738.0188	926.43945	703.56836	-710.15912	796.0827	732.47607	-771.76007	812.56958	700.22919	-757.97382	722.06403	692.97742	-620.17029	1382.59778	1139.39429	-636.87335	1191.63318	1244.49451	-606.67133	1077.2644	1268.77722	-537.24066	982.87933	1283.65393	-417.94913	898.13257	1238.11865	-457.66232	871.55731	1285.43176	-385.81281	828.67047	1279.76184	-543.47882	941.42596	890.1264	-557.65424	944.33301	1107.25146	-700.64514	959.39838	903.21045	-706.04254	968.43372	1070.89551	-539.47015	624.66504	818.48267	-464.59662	481.10825	851.61072	-418.16742	233.05206	861.00562	-360.28076	69.70387	900.64044	-390.45944	44.42513	949.18018	-215.26352	82.63683	899.82269	-663.92822	612.0744	1148.38867	-692.74866	488.16095	1126.37817	-828.00433	251.73804	1116.90515	-905.78766	83.2378	1066.74365	-951.64569	67.41984	1022.16901	-761.71973	30.27582	1067.62048	-648.2334	1675.32971	967.74066	NaN	NaN	NaN	NaN	NaN	NaN	NaN	NaN	NaN	NaN	NaN	NaN	NaN	NaN	NaN
20	0.19	-546.72589	1625.59851	895.04626	-523.43835	1626.76501	1025.27832	-678.68915	1576.64087	923.71509	-653.91901	1582.2749	1050.65625	-672.05249	1421.1095	979.95807	-711.45532	1092.66284	988.78448	-560.91394	1344.62366	978.41956	-519.99976	1173.70703	978.32281	-745.24536	1253.66211	1066.13879	-621.84436	1371.65588	817.43756	-670.2597	1177.41418	745.37115	-707.20142	1071.40564	734.1192	-729.23511	925.22083	702.73663	-702.34882	794.37109	731.19727	-764.44397	811.75421	699.83557	-752.27716	720.99121	692.55383	-605.68933	1379.89832	1138.75537	-621.61951	1189.09094	1244.21521	-590.63403	1075.07166	1268.82776	-519.94452	981.74683	1283.42896	-399.63629	898.85034	1237.27917	-438.87567	871.66852	1284.84167	-366.26526	830.02222	1278.96802	-527.73993	939.40131	890.03479	-543.11273	942.2345	1107.24866	-685.44562	956.90277	902.11261	-691.79254	965.74152	1069.70239	-523.31738	622.34595	816.80707	-448.53937	478.9339	850.83032	-395.48874	232.4178	860.25665	-331.45435	71.32833	900.12671	-360.31155	44.72561	948.97998	-187.04231	90.25251	898.24084	-651.99976	610.48755	1148.42908	-681.71851	486.58292	1126.4292	-822.19385	252.85136	1116.7312	-904.19476	86.23114	1066.93738	-950.67487	71.93559	1022.52399	-761.62744	30.23854	1067.46753	-633.72791	1672.7406	967.11102	NaN	NaN	NaN	NaN	NaN	NaN	NaN	NaN	NaN	NaN	NaN	NaN	NaN	NaN	NaN
21	0.2	-532.07428	1623.44177	894.34247	-508.87122	1624.50732	1024.62903	-664.0105	1574.28052	922.87042	-639.37372	1579.84509	1049.84155	-657.46686	1418.68994	979.08942	-696.59692	1090.20984	988.00189	-546.16602	1342.30261	977.68365	-505.27008	1171.43665	977.82593	-730.82025	1251.40515	1065.27722	-607.24829	1369.12231	816.50421	-657.34131	1175.45471	744.70697	-695.67175	1069.89673	733.59045	-719.67896	923.97803	702.26233	-694.37335	792.93549	730.39954	-756.4729	811.1004	699.38214	-745.90369	720.14978	692.17163	-591.0885	1377.46106	1137.9856	-606.35187	1186.80432	1243.72864	-574.75385	1073.04688	1268.63196	-503.07339	980.66113	1283.07654	-381.94739	899.47723	1236.61633	-420.61243	871.70441	1284.29272	-347.67935	831.18945	1278.31238	-512.27832	937.33502	890.24054	-528.5083	940.31647	1107.31543	-669.6377	954.48724	900.75287	-677.34357	963.21661	1068.42896	-505.90378	620.88861	815.36755	-432.72064	477.01855	850.20258	-373.88043	231.73981	859.76868	-305.78595	72.59305	899.89325	-333.4657	45.12546	949.125	-162.05826	96.0958	896.48889	-639.58655	609.07471	1148.47559	-670.28113	485.23364	1126.4884	-815.69415	254.21275	1116.75562	-902.26868	89.73248	1067.38782	-949.23004	76.9341	1023.04572	-761.58527	30.26937	1067.4447	-619.19427	1670.42676	966.39923	NaN	NaN	NaN	NaN	NaN	NaN	NaN	NaN	NaN	NaN	NaN	NaN	NaN	NaN	NaN
22	0.21	-517.25024	1621.61072	893.55902	-494.24475	1622.54553	1023.87427	-649.22626	1572.2334	921.89813	-624.79785	1577.76929	1048.91309	-642.79626	1416.60828	978.05994	-681.55737	1088.0686	987.29449	-531.19836	1340.39868	976.72937	-490.13504	1169.5155	977.15021	-716.08661	1249.36133	1064.1615	-592.52582	1366.89124	815.44037	-643.86047	1173.82068	744.07892	-683.78021	1068.53003	732.88446	-709.3009	923.02606	701.64825	-685.09839	791.56293	729.42603	-747.51556	810.50696	698.86163	-738.37262	719.37897	691.87146	-576.39215	1375.33704	1137.06995	-591.15631	1184.86877	1243.0011	-559.11066	1071.32507	1268.19519	-486.51291	979.63031	1282.35706	-364.91562	899.88593	1235.93677	-403.26627	871.65485	1283.50977	-329.73645	832.1665	1277.60156	-496.44547	935.60553	890.21899	-513.72162	938.65424	1107.2439	-653.85101	952.39215	899.43884	-662.49829	960.83728	1067.06958	-487.64447	620.0484	814.37189	-416.216	475.84006	849.16516	-353.95206	231.31944	859.17487	-283.46634	73.23676	899.58002	-310.34344	45.21563	949.07013	-140.32449	99.75664	895.16199	-626.61487	607.77106	1148.47705	-658.10876	483.9454	1126.59778	-808.74438	255.99403	1116.99536	-900.05792	93.86674	1068.17236	-947.57788	82.77859	1024.08313	-761.61243	30.2908	1067.32495	-604.57538	1668.38379	965.55341	NaN	NaN	NaN	NaN	NaN	NaN	NaN	NaN	NaN	NaN	NaN	NaN	NaN	NaN	NaN
